<?xml version="1.0" encoding="utf-8"?>
<svg xmlns="http://www.w3.org/2000/svg" fill="none" height="100%" overflow="visible" preserveAspectRatio="none" style="display: block;" viewBox="0 0 141.015 39.9999" width="100%">
<g id="Group 1000008194">
<g id="Group 1000008127">
<path d="M140.955 30.9485L117.287 31.0097L104.348 20.135L140.955 30.9485Z" fill="var(--fill-0, #09696E)" id="Vector 1205"/>
<path d="M117.227 0.00168118H140.955V8.93081H117.227V0.00168118Z" fill="var(--fill-0, #1DBF98)" id="Rectangle 3761"/>
<path d="M83.6227 0.0016414H92.4154V8.93077H83.6227V0.0016414Z" fill="var(--fill-0, #1DBF98)" id="Rectangle 3764"/>
<path d="M83.6225 16.0241H92.4151V39.8759H83.6225V16.0241Z" fill="var(--fill-0, #1DBF98)" id="Rectangle 3765"/>
<path d="M104.348 20.3171L117.227 0.00168118V8.9304L104.348 20.3171Z" fill="var(--fill-0, #ACEED6)" id="Vector 1202"/>
<path d="M104.709 20.3171L92.4156 0.00168118V8.9304L104.709 20.3171Z" fill="var(--fill-0, #ACEED6)" id="Vector 1207"/>
<path d="M117.227 8.92861L104.348 20.3153L140.955 8.92861H117.227Z" fill="var(--fill-0, #09696E)" id="Vector 1204"/>
<path d="M92.4156 8.92861L104.709 20.3153L83.6832 8.92861H92.4156Z" fill="var(--fill-0, #09696E)" id="Vector 1208"/>
<path d="M117.167 30.9484H140.955V39.8775H117.167V30.9484Z" fill="var(--fill-0, #1DBF98)" id="Rectangle 3763"/>
<path d="M117.287 31.0097V39.9999L104.348 20.135L117.287 31.0097Z" fill="var(--fill-0, #ACEED6)" id="Vector 1203"/>
<path d="M92.4139 16.0241V39.8759L104.527 20.1328L92.4139 16.0241Z" fill="var(--fill-0, #ACEED6)" id="Vector 1209"/>
<rect fill="var(--fill-0, #1DBF98)" height="8.92913" id="Rectangle 3762" width="23.8486" x="117.167" y="16.0241"/>
<path d="M104.168 20.1328L117.167 16.0241V24.9533L104.168 20.1328Z" fill="var(--fill-0, #ACEED6)" id="Vector 1201"/>
</g>
<g id="Group 1000008192">
<g id="Group 1000008124">
<g id="Group 1000008084">
<path d="M41.213 34.5053L41.213 31.224L51.588 31.224C52.161 31.224 52.9269 31.1602 52.9269 30.1459C52.9267 29.1315 51.9692 29.1947 51.5235 29.1947L45.7325 29.1947L45.7325 25.8969L52.9923 25.8969C53.5478 25.8969 53.8654 26.0758 54.0743 26.2142C54.4161 26.4407 54.6472 26.7851 54.7745 27.2289C54.8344 27.4191 54.8372 28.2762 54.8351 29.2582C54.8333 30.0784 54.8383 30.3227 54.839 30.7806C54.8453 34.9241 52.6288 34.0328 52.3087 34.1898C51.8 34.4408 51.143 34.5052 49.5538 34.5053L41.213 34.5053Z" fill="var(--fill-0, #1DBF98)" id="Union"/>
<path d="M54.8342 34.5231L54.8342 29.8303L52.9242 31.989L48.3401 34.5231L54.8342 34.5231Z" fill="var(--fill-0, #1DBF98)" id="Vector 1759"/>
</g>
<g id="Group 1000008085">
<path d="M27.5216 25.7698L30.8155 25.7698L30.8155 31.2844C30.8155 31.8552 31.1337 32.6165 32.1524 32.6165C33.1709 32.6163 33.4894 31.6648 33.4894 31.221L33.4894 25.7698L36.7999 25.7698L36.7999 32.6839C36.7999 33.2373 36.6205 33.5539 36.4815 33.762C36.2541 34.1024 35.9085 34.3324 35.463 34.4593C35.272 34.5189 34.4117 34.521 33.4259 34.5188C32.6024 34.517 31.7206 34.523 31.2608 34.5237C27.1019 34.5301 27.9949 32.3231 27.838 32.0032C27.586 31.4965 27.5216 30.8413 27.5216 29.2581L27.5216 25.7698Z" fill="var(--fill-0, #1DBF98)" id="Union_2"/>
<path d="M27.5053 34.5198H32.2167L30.0495 32.6173L27.5053 28.0514V34.5198Z" fill="var(--fill-0, #1DBF98)" id="Vector 1759_2"/>
</g>
<g id="Group 1000008086">
<path d="M30.9259 25.7698L27.632 25.7698L27.632 31.2845C27.6318 31.8552 27.3135 32.6155 26.295 32.6155C25.2766 32.6155 24.9583 31.665 24.9581 31.221L24.9581 25.7698L21.6476 25.7698L21.6476 32.6829C21.6476 33.2365 21.8269 33.5529 21.9659 33.761C22.1934 34.1015 22.5388 34.3315 22.9845 34.4583C23.1756 34.5179 24.0357 34.52 25.0216 34.5179C25.8451 34.5161 26.7269 34.522 27.1866 34.5227C31.3475 34.5291 30.4514 32.3204 30.6095 32.0022C30.8614 31.4955 30.9259 30.8412 30.9259 29.2581L30.9259 25.7698Z" fill="var(--fill-0, #1DBF98)" id="Union_3"/>
<path d="M30.9417 34.5198H26.2303L28.3975 32.6173L30.9417 28.0514V34.5198Z" fill="var(--fill-0, #1DBF98)" id="Vector 1759_3"/>
</g>
<g id="Group 1000008087">
<path d="M15.5508 28.8362L18.8447 28.8362L18.8447 31.2844C18.8447 31.8552 19.1629 32.6165 20.1816 32.6165C21.2002 32.6163 21.5186 31.6648 21.5186 31.221L21.5186 25.7698L24.8291 25.7698L24.8291 32.6839C24.8291 33.2373 24.6497 33.5539 24.5107 33.762C24.2833 34.1024 23.9378 34.3324 23.4922 34.4593C23.3012 34.5189 22.4409 34.521 21.4551 34.5188C20.6316 34.517 19.7498 34.523 19.29 34.5237C15.1309 34.5301 16.0242 32.323 15.8672 32.0032C15.6152 31.4965 15.5508 30.8413 15.5508 29.2581C15.5508 27.9925 15.5508 30.3489 15.5508 28.8362Z" fill="var(--fill-0, #1DBF98)" id="Union_4"/>
<path d="M15.5359 34.52H20.2473L18.0801 32.6176L15.5359 28.6883V34.52Z" fill="var(--fill-0, #1DBF98)" id="Vector 1759_4"/>
</g>
<g id="Group 1000008089">
<path d="M2.99671 34.3562C2.19271 33.9616 3.5797 32.7147 3.43811 32.4275C3.18628 31.9172 3.11976 33.5806 3.11976 31.9841C3.11976 31.1691 3.58576 32.2213 3.92347 32.6941C4.02695 32.6328 4.14091 32.5968 4.26429 32.5964C4.26567 32.5642 4.26624 32.529 4.26624 32.4909L5.73011 31.7302L4.82874 32.5964C5.95294 32.5967 8.40104 32.5974 10.7604 32.5974C13.8786 32.5335 15.5334 32.6959 15.5348 32.4685L15.5348 28.6238L18.8463 28.6238L18.8463 32.6609C18.8463 33.2191 18.6669 33.5388 18.528 33.7488C18.3006 34.0922 17.9549 34.3249 17.5094 34.4529C17.3184 34.513 16.6486 34.5224 15.6627 34.5202C14.8393 34.5184 3.83136 34.5136 3.37464 34.4568C3.21718 34.4372 3.09413 34.4042 3.00061 34.3591C2.95045 34.5188 2.92936 34.5715 2.92933 34.4216L2.99671 34.3562Z" fill="var(--fill-0, #1DBF98)" id="Union_5"/>
</g>
<rect fill="var(--fill-0, #1DBF98)" height="3.31075" id="Rectangle 4032" transform="rotate(90 72.3815 21.0801)" width="13.571" x="72.3815" y="21.0801"/>
<rect fill="var(--fill-0, #1DBF98)" height="3.31075" id="Rectangle 4033" transform="rotate(90 42.7846 20.9526)" width="13.571" x="42.7846" y="20.9526"/>
<rect fill="var(--fill-0, #1DBF98)" height="2.7903" id="Rectangle 4043" transform="rotate(-180 9.16676 28.5627)" width="3.05608" x="9.16676" y="28.5627"/>
<rect fill="var(--fill-0, #1DBF98)" height="2.7903" id="Rectangle 4044" transform="rotate(-180 12.9412 28.5627)" width="3.05608" x="12.9412" y="28.5627"/>
<rect fill="var(--fill-0, #1DBF98)" height="2.7903" id="Rectangle 4045" transform="rotate(-180 62.4469 39.4678)" width="3.05608" x="62.4469" y="39.4678"/>
<rect fill="var(--fill-0, #1DBF98)" height="2.7903" id="Rectangle 4046" transform="rotate(-180 66.3279 39.4678)" width="3.05608" x="66.3279" y="39.4678"/>
<rect fill="var(--fill-0, #1DBF98)" height="2.7903" id="Rectangle 4037" transform="rotate(-180 61.2093 23.7447)" width="3.05608" x="61.2093" y="23.7447"/>
<rect fill="var(--fill-0, #1DBF98)" height="2.7903" id="Rectangle 4039" transform="rotate(-180 54.9501 39.4678)" width="3.05608" x="54.9501" y="39.4678"/>
<path d="M61.3306 32.5912C61.3306 33.1749 61.1512 33.5085 61.0123 33.728C60.7849 34.087 60.4393 34.3296 59.9937 34.4633C59.8069 34.5248 58.9797 34.5288 58.021 34.5268V25.9028H61.3306V32.5912Z" fill="var(--fill-0, #1DBF98)" id="Subtract"/>
<path d="M0.00127363 32.5912C0.00130531 33.1748 0.180672 33.5085 0.319633 33.728C0.546991 34.0868 0.892783 34.3296 1.33819 34.4633C1.5256 34.5247 2.35283 34.5288 3.31084 34.5268V25.9028H0.00127363V32.5912Z" fill="var(--fill-0, #1DBF98)" id="Subtract_2"/>
<path d="M66.3952 32.5912C66.3952 33.1749 66.2158 33.5085 66.0768 33.728C65.8495 34.0868 65.5038 34.3296 65.0583 34.4633C64.8709 34.5247 64.0439 34.5288 63.0856 34.5268V25.9028H66.3952V32.5912Z" fill="var(--fill-0, #1DBF98)" id="Subtract_3"/>
<rect fill="var(--fill-0, #1DBF98)" height="3.40068" id="Rectangle 4041" width="16.502" x="42.659" y="31.1552"/>
<rect fill="var(--fill-0, #1DBF98)" height="3.29763" id="Rectangle 4042" width="12.861" x="2.80141" y="31.2276"/>
</g>
<g id="   ">
<path d="M3.09892 1.81014C3.67124 2.98374 4.04116 3.74956 4.20867 4.10761H4.21913C4.41456 4.52533 4.58207 4.84691 4.72166 5.07234C4.86125 5.29778 5.00433 5.46354 5.1509 5.56963C5.30445 5.66909 5.47894 5.71882 5.67437 5.71882H5.85235L5.91516 6.37523L5.85235 6.97198H5.67437C5.10205 6.97198 4.59603 6.7366 4.15632 6.26583C3.76546 6.7366 3.17918 6.97198 2.39747 6.97198H1.86354C1.45872 6.97198 1.09928 6.90899 0.785199 6.78301C0.478099 6.65703 0.216366 6.51448 0 6.35534L0.554874 5.34088C0.575812 5.34751 0.697954 5.41381 0.9213 5.53979C1.14465 5.65914 1.45872 5.71882 1.86354 5.71882H2.39747C2.63478 5.71882 2.82323 5.69892 2.96282 5.65914C3.10939 5.61936 3.22106 5.54974 3.29783 5.45028C3.34669 5.38398 3.37112 5.31436 3.37112 5.24142C3.37112 5.17512 3.35018 5.08892 3.3083 4.98283C3.27341 4.87674 3.22455 4.7574 3.16173 4.62479L2.05199 2.34721L3.09892 1.81014Z" fill="var(--fill-0, #1DBF98)"/>
<path d="M8.69493 3.72967V5.16185C8.69493 5.3674 8.75077 5.51327 8.86244 5.59947C8.97411 5.67903 9.1486 5.71882 9.3859 5.71882H9.72092L9.78374 6.37523L9.72092 6.97198H9.3859C9.16256 6.97198 8.93223 6.92888 8.69493 6.84268C8.46461 6.74986 8.25871 6.61725 8.07724 6.44485C7.88879 6.61725 7.66894 6.74986 7.41767 6.84268C7.16641 6.92888 6.91166 6.97198 6.65341 6.97198H5.74258V5.71882H6.65341C6.96051 5.71882 7.18386 5.6724 7.32345 5.57958C7.46304 5.48012 7.53284 5.31767 7.53284 5.09224V3.72967H8.69493ZM6.8628 1.37253H8.14006V2.56602H6.8628V1.37253Z" fill="var(--fill-0, #1DBF98)"/>
<path d="M9.61746 5.71882H9.90013C10.0397 5.71882 10.1514 5.68566 10.2351 5.61936C10.3189 5.55305 10.3817 5.44697 10.4236 5.3011L10.7063 4.28663C10.8668 3.7363 11.1215 3.30863 11.4705 3.00363C11.8195 2.69863 12.2383 2.54613 12.7268 2.54613C13.1177 2.54613 13.4632 2.6489 13.7633 2.85444C14.0704 3.05999 14.3077 3.34179 14.4752 3.69983C14.6497 4.05788 14.737 4.45902 14.737 4.90327C14.737 5.14196 14.7579 5.31767 14.7998 5.43039C14.8416 5.54311 14.9079 5.61936 14.9987 5.65914C15.0964 5.69892 15.236 5.71882 15.4175 5.71882H15.5431L15.6164 6.32551L15.5431 6.97198H15.4175C14.9219 6.97198 14.5311 6.83605 14.2449 6.5642C14.0774 6.76975 13.882 6.91893 13.6586 7.01176C13.4422 7.11122 13.2189 7.16095 12.9886 7.16095C12.7373 7.16095 12.4721 7.11453 12.1929 7.02171C11.9207 6.92888 11.5299 6.76312 11.0203 6.52442C10.8668 6.66366 10.6923 6.77306 10.4969 6.85263C10.3015 6.9322 10.106 6.97198 9.9106 6.97198H9.61746V5.71882ZM11.5857 5.45028C11.9905 5.64257 12.2871 5.77186 12.4756 5.83817C12.671 5.90447 12.8525 5.93762 13.02 5.93762C13.2154 5.93762 13.3655 5.86137 13.4702 5.70887C13.5818 5.54974 13.6377 5.2812 13.6377 4.90327C13.6377 4.53859 13.5574 4.26011 13.3969 4.06782C13.2363 3.86891 13.013 3.76945 12.7268 3.76945C12.5175 3.76945 12.329 3.8457 12.1615 3.9982C12.001 4.14408 11.8823 4.35625 11.8055 4.63473L11.5857 5.45028Z" fill="var(--fill-0, #1DBF98)"/>
<path d="M15.4349 5.71882H16.1573C16.4295 5.71882 16.6249 5.66577 16.7435 5.55968C16.8622 5.44697 16.9215 5.26794 16.9215 5.02261V3.72967H18.0836V5.08229C18.0836 5.49338 18.3209 5.70556 18.7955 5.71882C19.312 5.70556 19.5703 5.47017 19.5703 5.01267L19.5598 3.72967H20.7219V5.08229C20.7219 5.3011 20.7777 5.46023 20.8894 5.55968C21.008 5.65914 21.1825 5.71219 21.4129 5.71882C21.6571 5.71219 21.8456 5.65251 21.9782 5.53979C22.1108 5.42044 22.1666 5.26131 22.1457 5.0624C22.1248 4.85022 22.0794 4.57506 22.0096 4.2369C21.9468 3.89875 21.9049 3.67663 21.884 3.57054C21.87 3.53075 21.8561 3.46445 21.8421 3.37162L22.9414 3.10309C23.0251 3.41472 23.1019 3.78271 23.1717 4.20706C23.2485 4.62479 23.2869 4.953 23.2869 5.19169C23.2869 5.4967 23.2171 5.78512 23.0775 6.05697C22.9449 6.32882 22.7355 6.55094 22.4493 6.72334C22.1701 6.8891 21.8247 6.97198 21.4129 6.97198C21.1616 6.97198 20.9208 6.92225 20.6905 6.82279C20.4671 6.7167 20.2752 6.56752 20.1147 6.37523C19.9541 6.56089 19.7587 6.70676 19.5284 6.81285C19.305 6.91893 19.0538 6.97198 18.7746 6.97198C18.5373 6.97198 18.293 6.91562 18.0417 6.8029C17.7905 6.68355 17.5985 6.541 17.4659 6.37523C17.3263 6.56089 17.1379 6.70676 16.9006 6.81285C16.6703 6.91893 16.4085 6.97198 16.1154 6.97198H15.4349V5.71882ZM18.5966 1.38248H19.7796V2.50634H18.5966V1.38248ZM19.6121 1.95503e-05H20.7428V1.06421H19.6121V1.95503e-05ZM20.5648 1.38248H21.7479V2.50634H20.5648V1.38248Z" fill="var(--fill-0, #1DBF98)"/>
<path d="M25.7254 8.27487C26.1791 8.27487 26.5246 8.23177 26.7619 8.14558C26.9992 8.05938 27.1632 7.92345 27.2539 7.7378C27.3447 7.55878 27.3935 7.3035 27.4005 6.97198H26.4268C25.7847 6.97198 25.2752 6.79296 24.8983 6.43491C24.5214 6.07686 24.333 5.57958 24.333 4.94305C24.333 4.49218 24.4202 4.09103 24.5947 3.73962C24.7762 3.38157 25.024 3.10309 25.338 2.90417C25.6521 2.70526 26.0116 2.6058 26.4164 2.6058C26.8421 2.6058 27.2155 2.70526 27.5366 2.90417C27.8646 3.09646 28.1159 3.37162 28.2904 3.72967C28.4718 4.08109 28.5626 4.48555 28.5626 4.94305V5.71882H29.1489L29.2221 6.35534L29.1489 6.97198H28.5626C28.5486 7.74775 28.3113 8.3677 27.8507 8.83183C27.397 9.29597 26.6886 9.52803 25.7254 9.52803H24.511V8.27487H25.7254ZM25.4532 4.90327C25.4532 5.20164 25.53 5.42044 25.6835 5.55968C25.844 5.69229 26.0918 5.7586 26.4268 5.7586H27.4005V4.92316C27.4005 4.57174 27.3202 4.29658 27.1597 4.09766C27.0061 3.89875 26.7584 3.79929 26.4164 3.79929C26.1023 3.79929 25.8615 3.90206 25.694 4.10761C25.5335 4.30652 25.4532 4.57174 25.4532 4.90327Z" fill="var(--fill-0, #1DBF98)"/>
<path d="M34.5393 1.6709L36.183 4.04793C36.4343 4.41261 36.5599 4.80712 36.5599 5.23148C36.5599 5.63594 36.4447 5.97409 36.2144 6.24594C35.9981 6.51116 35.6805 6.70676 35.2617 6.83274C34.8499 6.95209 34.2951 7.01176 33.5971 7.01176C32.955 7.01176 32.3408 6.9123 31.7545 6.71339C31.1682 6.88578 30.5435 6.97198 29.8805 6.97198H29.0429V5.71882H30.1527C29.8177 5.33425 29.6502 4.91321 29.6502 4.45571C29.6502 4.06451 29.7444 3.70315 29.9328 3.37162C30.1283 3.0401 30.39 2.77819 30.718 2.58591C31.0531 2.387 31.416 2.28754 31.8068 2.28754C32.1907 2.28754 32.5432 2.387 32.8642 2.58591C33.1923 2.77819 33.4505 3.0401 33.639 3.37162C33.8344 3.69652 33.9321 4.05456 33.9321 4.44576C33.9321 4.93642 33.7576 5.37403 33.4086 5.7586H33.5238C34.5009 5.7586 35.0802 5.66577 35.2617 5.48012C35.3385 5.40718 35.3769 5.31436 35.3769 5.20164C35.3769 5.05577 35.3106 4.88669 35.178 4.69441L33.5657 2.35716L34.5393 1.6709ZM30.8123 4.48555C30.8123 4.70435 30.8925 4.89995 31.0531 5.07234C31.2206 5.23811 31.4544 5.37735 31.7545 5.49006C32.0825 5.38398 32.3338 5.24474 32.5083 5.07234C32.6828 4.89995 32.77 4.70104 32.77 4.4756C32.77 4.19049 32.6793 3.95842 32.4978 3.7794C32.3163 3.59374 32.0825 3.50092 31.7964 3.50092C31.5032 3.50092 31.2659 3.59374 31.0845 3.7794C30.903 3.95842 30.8123 4.1938 30.8123 4.48555Z" fill="var(--fill-0, #1DBF98)"/>
<path d="M47.0096 6.97198C46.7304 6.97198 46.4896 6.90567 46.2872 6.77306V6.85263C46.2872 7.66818 46.0569 8.30802 45.5962 8.77216C45.1426 9.24292 44.4272 9.4783 43.45 9.4783H42.4869C41.8727 9.4783 41.3492 9.34238 40.9165 9.07053C40.4837 8.80531 40.1557 8.44726 39.9323 7.99639C39.709 7.55215 39.5973 7.06149 39.5973 6.52442C39.5973 6.1067 39.6671 5.67572 39.8067 5.23148C39.9463 4.7806 40.1208 4.3662 40.3302 3.98826L41.3038 4.48555C40.9269 5.23479 40.7385 5.91442 40.7385 6.52442C40.7385 7.06812 40.8746 7.48584 41.1468 7.77758C41.426 8.07595 41.8727 8.22514 42.4869 8.22514H43.45C43.9037 8.22514 44.2492 8.18204 44.4865 8.09585C44.7238 8.01628 44.8878 7.87704 44.9785 7.67813C45.0763 7.48584 45.1251 7.21068 45.1251 6.85263V3.72967H46.2872V5.11213C46.2872 5.34419 46.35 5.50333 46.4757 5.58952C46.6013 5.67572 46.7793 5.71882 47.0096 5.71882H47.2085L47.2818 6.36529L47.2085 6.97198H47.0096ZM42.5392 3.11303H43.8165V4.30652H42.5392V3.11303Z" fill="var(--fill-0, #1DBF98)"/>
<path d="M50.3123 3.72967V5.16185C50.3123 5.3674 50.3681 5.51327 50.4798 5.59947C50.5914 5.67903 50.7659 5.71882 51.0032 5.71882H51.5581L51.6209 6.37523L51.5581 6.97198H51.0032C50.7869 6.97198 50.56 6.92888 50.3227 6.84268C50.0854 6.75649 49.876 6.62719 49.6946 6.4548C49.5131 6.62056 49.2967 6.74986 49.0455 6.84268C48.7942 6.92888 48.5395 6.97198 48.2812 6.97198H47.1086V5.71882H48.2812C48.5883 5.71882 48.8082 5.6724 48.9408 5.57958C49.0804 5.48012 49.1502 5.31767 49.1502 5.09224V3.72967H50.3123ZM47.3494 8.29476H48.5325V9.40868H47.3494V8.29476ZM49.2758 8.29476H50.4693V9.40868H49.2758V8.29476Z" fill="var(--fill-0, #1DBF98)"/>
<path d="M51.4538 5.71882H51.7365C51.8761 5.71882 51.9878 5.68566 52.0715 5.61936C52.1553 5.55305 52.2181 5.44697 52.26 5.3011L52.5426 4.28663C52.7032 3.7363 52.9579 3.30863 53.3069 3.00363C53.6559 2.69863 54.0746 2.54613 54.5632 2.54613C54.9541 2.54613 55.2995 2.6489 55.5997 2.85444C55.9068 3.05999 56.1441 3.34179 56.3116 3.69983C56.4861 4.05788 56.5733 4.45902 56.5733 4.90327C56.5733 5.42707 56.4861 5.85806 56.3116 6.19621C56.1371 6.53437 55.9172 6.77969 55.652 6.9322C55.3868 7.0847 55.1111 7.16095 54.8249 7.16095C54.5737 7.16095 54.3085 7.11453 54.0293 7.02171C53.7571 6.92888 53.3662 6.76312 52.8567 6.52442C52.7032 6.66366 52.5287 6.77306 52.3332 6.85263C52.1378 6.9322 51.9424 6.97198 51.747 6.97198H51.4538V5.71882ZM53.4221 5.45028C53.8269 5.64257 54.1235 5.77186 54.3119 5.83817C54.5074 5.90447 54.6888 5.93762 54.8563 5.93762C55.0518 5.93762 55.2018 5.86137 55.3065 5.70887C55.4182 5.54974 55.474 5.2812 55.474 4.90327C55.474 4.53859 55.3938 4.26011 55.2332 4.06782C55.0727 3.86891 54.8494 3.76945 54.5632 3.76945C54.3538 3.76945 54.1654 3.8457 53.9979 3.9982C53.8373 4.14408 53.7187 4.35625 53.6419 4.63473L53.4221 5.45028Z" fill="var(--fill-0, #1DBF98)"/>
<path d="M59.7797 3.72967V6.53437C59.7797 7.46927 59.5284 8.19199 59.0259 8.70254C58.5234 9.21971 57.7975 9.4783 56.8483 9.4783H56.1887V8.22514H56.8483C57.295 8.22514 57.644 8.1721 57.8952 8.06601C58.1535 7.95992 58.3384 7.78421 58.4501 7.53889C58.5688 7.30019 58.6281 6.96535 58.6281 6.53437V3.72967H59.7797ZM58.5548 1.27307H59.8321V2.46656H58.5548V1.27307Z" fill="var(--fill-0, #1DBF98)"/>
<path d="M63.7977 3.72967V5.16185C63.7977 5.3674 63.8536 5.51327 63.9652 5.59947C64.0769 5.67903 64.2549 5.71882 64.4992 5.71882H64.6667L64.7295 6.35534L64.6667 6.97198H64.4992C64.227 6.97198 63.9897 6.90567 63.7872 6.77306C63.7454 7.63503 63.4732 8.30139 62.9706 8.77216C62.4681 9.24292 61.7667 9.4783 60.8663 9.4783H60.2067V8.22514H60.8663C61.313 8.22514 61.662 8.1721 61.9132 8.06601C62.1715 7.95992 62.3564 7.78421 62.4681 7.53889C62.5868 7.30019 62.6461 6.96535 62.6461 6.53437V3.72967H63.7977Z" fill="var(--fill-0, #1DBF98)"/>
<path d="M64.5609 5.71882H65.2833C65.5555 5.71882 65.7509 5.66577 65.8696 5.55968C65.9882 5.44697 66.0476 5.26794 66.0476 5.02261V3.72967H67.2097V5.08229C67.2097 5.49338 67.447 5.70556 67.9216 5.71882C68.4381 5.70556 68.6963 5.47017 68.6963 5.01267L68.6858 3.72967H69.8479V5.08229C69.8479 5.3011 69.9038 5.46023 70.0154 5.55968C70.1341 5.65914 70.3086 5.71219 70.5389 5.71882C70.7832 5.71219 70.9716 5.65251 71.1042 5.53979C71.2368 5.42044 71.2927 5.26131 71.2717 5.0624C71.2508 4.85022 71.2054 4.57506 71.1356 4.2369C71.0728 3.89875 71.0309 3.67663 71.01 3.57054C70.9961 3.53075 70.9821 3.46445 70.9681 3.37162L72.0674 3.10309C72.1512 3.41472 72.2279 3.78271 72.2977 4.20706C72.3745 4.62479 72.4129 4.953 72.4129 5.19169C72.4129 5.4967 72.3431 5.78512 72.2035 6.05697C72.0709 6.32882 71.8615 6.55094 71.5754 6.72334C71.2962 6.8891 70.9507 6.97198 70.5389 6.97198C70.2876 6.97198 70.0468 6.92225 69.8165 6.82279C69.5932 6.7167 69.4012 6.56752 69.2407 6.37523C69.0802 6.56089 68.8847 6.70676 68.6544 6.81285C68.4311 6.91893 68.1798 6.97198 67.9006 6.97198C67.6633 6.97198 67.419 6.91562 67.1678 6.8029C66.9165 6.68355 66.7246 6.541 66.592 6.37523C66.4524 6.56089 66.2639 6.70676 66.0266 6.81285C65.7963 6.91893 65.5346 6.97198 65.2414 6.97198H64.5609V5.71882Z" fill="var(--fill-0, #1DBF98)"/>
</g>
</g>
</g>
</svg>